<svg xmlns="http://www.w3.org/2000/svg" version="1.1" xmlns:xlink="http://www.w3.org/1999/xlink" xmlns:svgjs="http://svgjs.dev/svgjs" width="1500" height="1500" viewBox="0 0 1500 1500"><rect width="1500" height="1500" fill="#ffffff"></rect><g transform="matrix(0.6666666666666666,0,0,0.6666666666666666,249.39393939393938,656.7935573263233)"><svg viewBox="0 0 396 74" data-background-color="#000000" preserveAspectRatio="xMidYMid meet" height="280" width="1500" xmlns="http://www.w3.org/2000/svg" xmlns:xlink="http://www.w3.org/1999/xlink"><g id="tight-bounds" transform="matrix(1,0,0,1,0.2400000000000091,-0.050303082935300836)"><svg viewBox="0 0 395.52 74.10060616587059" height="74.10060616587059" width="395.52"><g><svg viewBox="0 0 395.52 74.10060616587059" height="74.10060616587059" width="395.52"><g><svg viewBox="0 0 395.52 74.10060616587059" height="74.10060616587059" width="395.52"><g id="textblocktransform"><svg viewBox="0 0 395.52 74.10060616587059" height="74.10060616587059" width="395.52" id="textblock"><g><svg viewBox="0 0 395.52 74.10060616587059" height="74.10060616587059" width="395.52"><g transform="matrix(1,0,0,1,0,0)"><svg width="395.52" viewBox="0.34375 -40 215.89625 40.45" height="74.10060616587059" data-palette-color="#ffffff"><g class="wordmark-text-0" data-fill-palette-color="primary" id="text-0"><path d="M28.15-1.2L17.15-34.8 6.2-1.2 6.2-1.25Q5.9-0.5 5.38-0.03 4.85 0.45 4.1 0.45L4.1 0.45Q3.7 0.45 3.33 0.38 2.95 0.3 2.55 0.2L2.55 0.2 2.6 0.2Q-0.25-0.7 0.5-3L0.5-3 11.9-37.65Q12.15-38.45 12.78-39 13.4-39.55 14.25-39.65L14.25-39.65Q15.1-39.8 15.9-39.88 16.7-39.95 17.15-39.95L17.15-39.95Q17.6-39.95 18.4-39.88 19.2-39.8 20.05-39.7L20.05-39.7Q20.75-39.6 21.43-38.95 22.1-38.3 22.45-37.65L22.45-37.65Q25.25-29.05 28.13-20.33 31-11.6 33.8-3L33.8-3Q34.5-0.7 31.7 0.2L31.7 0.2Q31.3 0.3 30.98 0.38 30.65 0.45 30.25 0.45L30.25 0.45Q29.55 0.45 28.98-0.03 28.4-0.5 28.15-1.25L28.15-1.25 28.15-1.2ZM20.9-12L20.9-12Q20.9-10.4 19.78-9.28 18.65-8.15 17.05-8.15L17.05-8.15Q15.45-8.15 14.35-9.28 13.25-10.4 13.25-12L13.25-12Q13.25-13.6 14.35-14.73 15.45-15.85 17.05-15.85L17.05-15.85Q18.65-15.85 19.78-14.73 20.9-13.6 20.9-12ZM56.4-1.75L56.4-25.4 46.75-25.4Q44.7-25.4 44.05-24.2L44.05-24.2Q43.35-23.15 43.35-21.75L43.35-21.75 43.35-7.35Q43.35-6.05 44.15-5.38 44.95-4.7 46.8-4.7L46.8-4.7 51.95-4.7Q53.75-4.7 53.75-2.35L53.75-2.35Q53.75-1.35 53.32-0.68 52.9 0 51.95 0L51.95 0 45.9 0Q42.75 0 40.3-1.6L40.3-1.6Q37.85-3.1 37.85-7.3L37.85-7.3 37.85-22.2Q37.85-24.25 38.5-25.75 39.15-27.25 40.55-28.2L40.55-28.2Q43.2-30.1 45.85-30.1L45.85-30.1 56.4-30.1 56.4-37.6Q56.4-40 59.15-40L59.15-40Q61.9-40 61.9-37.6L61.9-37.6 61.9-2.1Q61.9 0.3 59.15 0.3L59.15 0.3Q58.1 0.3 57.25-0.08 56.4-0.45 56.4-1.75L56.4-1.75ZM98.09-11.25L104.55-38.05 104.5-38Q104.8-39.1 105.67-39.6 106.55-40.1 108-39.85L108-39.85Q109.45-39.6 110.07-38.95 110.7-38.3 110.35-37.15L110.35-37.15 101.34-1.3 101.34-1.35Q101.09-0.5 100.22-0.05 99.34 0.4 98.4 0.4L98.4 0.4Q97.3 0.4 96.32 0.08 95.35-0.25 95.1-1.25L95.1-1.25 95.15-1.2 89-25.6 87.65-25.6 81.55-1.25Q81.3-0.4 80.3 0 79.3 0.4 78.25 0.4L78.25 0.4Q76.95 0.4 76.17 0.03 75.4-0.35 75.15-1.3L75.15-1.3 75.2-1.25 66.2-37.15Q65.95-38.15 66.65-38.88 67.35-39.6 68.65-39.85L68.65-39.85Q71.45-40.3 72.05-38L72.05-38 72-38.05 74.25-29Q74.7-27.2 75.15-25.33 75.6-23.45 76.15-21.33 76.7-19.2 77.35-16.7 78-14.2 78.8-11.1L78.8-11.1 85.2-38.1Q85.45-39.2 86.35-39.55 87.25-39.9 88.35-39.9L88.35-39.9Q89.35-39.9 90.3-39.53 91.25-39.15 91.5-38L91.5-38 98.09-11.25ZM128.54 0L121.99 0Q120.44 0 119.04-0.43 117.64-0.85 116.34-1.65L116.34-1.65 116.34-1.6Q113.89-3.15 113.89-7.3L113.89-7.3 113.89-9.75Q113.89-11.8 114.62-13.33 115.34-14.85 116.64-15.75L116.64-15.75 116.59-15.75Q117.84-16.6 119.24-17.03 120.64-17.45 121.94-17.45L121.94-17.45 132.99-17.45 132.99-22.1Q132.99-23.35 132.22-24.38 131.44-25.4 129.59-25.4L129.59-25.4 123.74-25.4Q121.84-25.4 121.12-24.48 120.39-23.55 120.39-22.3L120.39-22.3 120.39-21.9Q120.39-19.3 117.59-19.3L117.59-19.3Q114.79-19.3 114.79-21.9L114.79-21.9 114.79-22.35Q114.79-24.4 115.52-25.8 116.24-27.2 117.49-28.15L117.49-28.15 117.44-28.15Q118.74-29 120.17-29.55 121.59-30.1 122.89-30.1L122.89-30.1 130.49-30.1Q131.74-30.1 133.17-29.55 134.59-29 135.84-28.15L135.84-28.15 135.79-28.15Q137.09-27.2 137.79-25.68 138.49-24.15 138.49-22.15L138.49-22.15 138.49-2.1Q138.49 0.3 135.74 0.3L135.74 0.3Q135.19 0.3 134.72 0.25 134.24 0.2 133.87-0.03 133.49-0.25 133.27-0.68 133.04-1.1 133.04-1.8L133.04-1.8 132.99-12.75 122.89-12.75Q121.79-12.75 121.19-12.5 120.59-12.25 120.24-11.7L120.24-11.7Q119.84-10.85 119.67-10.38 119.49-9.9 119.49-9.3L119.49-9.3 119.49-7.35Q119.49-6.05 120.27-5.38 121.04-4.7 122.94-4.7L122.94-4.7 128.54-4.7Q130.39-4.7 130.39-2.35L130.39-2.35Q130.39-1.35 129.94-0.68 129.49 0 128.54 0L128.54 0ZM155.64-25.4L151.49-25.4 151.49-7.2Q151.49-5.9 152.04-5.2 152.59-4.5 154.39-4.5L154.39-4.5 155.69-4.5Q157.64-4.5 157.54-2.2L157.54-2.2Q157.54 0.15 155.69 0.15L155.69 0.15 154.04 0.15Q152.44 0.15 151.04-0.28 149.64-0.7 148.34-1.5L148.34-1.5 148.34-1.45Q145.89-3.05 145.89-7.15L145.89-7.15 145.89-25.4 143.94-25.4Q142.14-25.4 142.04-27.75L142.04-27.75Q142.04-30.1 143.94-30.1L143.94-30.1 145.89-30.1 145.89-35.45Q145.89-37.85 148.74-37.85L148.74-37.85Q151.49-37.85 151.49-35.45L151.49-35.45 151.49-30.1 155.64-30.1Q157.59-30.1 157.49-27.75L157.49-27.75Q157.49-25.4 155.64-25.4L155.64-25.4ZM185.94-10.3L185.94-7.95Q185.94-3.85 183.24-1.9L183.24-1.9Q180.59 0 177.94 0L177.94 0 169.54 0Q166.89 0 164.39-1.9L164.39-1.9Q163.19-2.9 162.54-4.42 161.89-5.95 161.89-7.95L161.89-7.95 161.89-22.2Q161.89-26.25 164.39-28.2L164.39-28.2Q165.64-29.1 166.96-29.63 168.29-30.15 169.54-30.15L169.54-30.15 177.94-30.15Q179.14-30.15 180.59-29.68 182.04-29.2 183.29-28.4L183.29-28.4Q184.49-27.55 185.21-26.05 185.94-24.55 185.94-22.5L185.94-22.5 185.94-20Q185.94-17.6 183.19-17.6L183.19-17.6Q180.44-17.6 180.44-20L180.44-20 180.44-22.15Q180.44-23.4 179.66-24.43 178.89-25.45 177.04-25.45L177.04-25.45 170.79-25.45Q168.94-25.45 168.16-24.43 167.39-23.4 167.39-22.15L167.39-22.15 167.39-8Q167.39-6.8 168.16-5.75 168.94-4.7 170.79-4.7L170.79-4.7 177.04-4.7Q178.89-4.7 179.66-5.75 180.44-6.8 180.44-8L180.44-8 180.44-10.3Q180.44-12.65 183.19-12.65L183.19-12.65Q185.94-12.65 185.94-10.3L185.94-10.3ZM197.69-25.4L197.69-2.1Q197.69 0.3 194.94 0.3L194.94 0.3Q192.19 0.3 192.19-2.1L192.19-2.1 192.19-37.6Q192.19-40 194.94-40L194.94-40Q197.69-40 197.69-37.6L197.69-37.6 197.69-30.1 208.24-30.1Q210.79-30.1 213.54-28.2L213.54-28.2Q216.24-26.3 216.24-22.2L216.24-22.2 216.24-2.1Q216.24 0.3 213.49 0.3L213.49 0.3Q210.74 0.3 210.74-2.1L210.74-2.1 210.74-21.75Q210.74-23.05 209.94-24.25L209.94-24.25 209.99-24.2Q209.34-25.4 207.34-25.4L207.34-25.4 197.69-25.4Z" fill="#000000" data-fill-palette-color="primary"></path></g></svg></g></svg></g></svg></g></svg></g></svg></g><defs></defs></svg><rect width="395.52" height="74.10060616587059" fill="none" stroke="none" visibility="hidden"></rect></g></svg></g></svg>